{
  "accessors": [
    {
      "bufferView": 2,
      "componentType": 5126,
      "count": 1295,
      "max": [
        11.941889762878418,
        18.759309768676758,
        22.352710723876953
      ],
      "min": [
        -11.941889762878418,
        -7.901549816131592,
        0.0
      ],
      "type": "VEC3"
    },
    {
      "bufferView": 2,
      "byteOffset": 15540,
      "componentType": 5126,
      "count": 1295,
      "max": [
        1.0,
        1.0,
        1.0
      ],
      "min": [
        -1.0,
        -1.0,
        -1.0
      ],
      "type": "VEC3"
    },
    {
      "bufferView": 1,
      "componentType": 5126,
      "count": 1295,
      "max": [
        0.9960500001907349,
        0.9929900169372559
      ],
      "min": [
        0.004040000028908253,
        0.007720000110566616
      ],
      "type": "VEC2"
    },
    {
      "bufferView": 0,
      "componentType": 5125,
      "count": 4608,
      "type": "SCALAR"
    },
    {
      "bufferView": 2,
      "byteOffset": 31080,
      "componentType": 5126,
      "count": 2821,
      "max": [
        20.470050811767578,
        10.9821195602417,
        1.9855999946594238
      ],
      "min": [
        -14.337579727172852,
        -21.4401798248291,
        0.007269999943673611
      ],
      "type": "VEC3"
    },
    {
      "bufferView": 2,
      "byteOffset": 64932,
      "componentType": 5126,
      "count": 2821,
      "max": [
        0.9999464154243469,
        0.9995661973953247,
        1.0
      ],
      "min": [
        -0.9999502301216125,
        -0.9999914765357971,
        -0.9999902844429016
      ],
      "type": "VEC3"
    },
    {
      "bufferView": 1,
      "byteOffset": 10360,
      "componentType": 5126,
      "count": 2821,
      "max": [
        0.9896000027656555,
        0.9955599904060364
      ],
      "min": [
        0.014709999784827232,
        0.020010000094771385
      ],
      "type": "VEC2"
    },
    {
      "bufferView": 0,
      "byteOffset": 18432,
      "componentType": 5125,
      "count": 7182,
      "type": "SCALAR"
    },
    {
      "bufferView": 2,
      "byteOffset": 98784,
      "componentType": 5126,
      "count": 289,
      "max": [
        6.476069927215576,
        -1.7640999555587769,
        19.61064910888672
      ],
      "min": [
        -9.040369987487793,
        -4.517590045928955,
        8.86758041381836
      ],
      "type": "VEC3"
    },
    {
      "bufferView": 2,
      "byteOffset": 102252,
      "componentType": 5126,
      "count": 289,
      "max": [
        0.22843718528747559,
        -0.878564715385437,
        0.47762343287467957
      ],
      "min": [
        -0.22846563160419464,
        -0.9999417662620544,
        -0.14832286536693573
      ],
      "type": "VEC3"
    },
    {
      "bufferView": 1,
      "byteOffset": 32928,
      "componentType": 5126,
      "count": 289,
      "max": [
        1.0,
        1.0
      ],
      "min": [
        0.0,
        0.0
      ],
      "type": "VEC2"
    },
    {
      "bufferView": 0,
      "byteOffset": 47160,
      "componentType": 5125,
      "count": 1536,
      "type": "SCALAR"
    }
  ],
  "asset": {
    "extras": {
      "author": "maxdragonn (https://sketchfab.com/maxdragon)",
      "license": "CC-BY-4.0 (http://creativecommons.org/licenses/by/4.0/)",
      "source": "https://sketchfab.com/3d-models/ibm-3178-891ae8149d8547a5971381237d13e2e6",
      "title": "IBM 3178"
    },
    "generator": "Sketchfab-12.67.0",
    "version": "2.0"
  },
  "bufferViews": [
    {
      "buffer": 0,
      "byteLength": 53304,
      "name": "floatBufferViews",
      "target": 34963
    },
    {
      "buffer": 0,
      "byteLength": 35240,
      "byteOffset": 53304,
      "byteStride": 8,
      "name": "floatBufferViews",
      "target": 34962
    },
    {
      "buffer": 0,
      "byteLength": 105720,
      "byteOffset": 88544,
      "byteStride": 12,
      "name": "floatBufferViews",
      "target": 34962
    }
  ],
  "buffers": [
    {
      "byteLength": 194264,
      "uri": "scene.bin"
    }
  ],
  "images": [
    {
      "uri": "textures/ibm_3178_baseColor.png"
    },
    {
      "uri": "textures/ibm_3178_keyboard_baseColor.png"
    },
    {
      "uri": "textures/display_baseColor.png"
    },
    {
      "uri": "textures/display_emissive.png"
    }
  ],
  "materials": [
    {
      "doubleSided": true,
      "name": "ibm_3178",
      "pbrMetallicRoughness": {
        "baseColorTexture": {
          "index": 0
        },
        "metallicFactor": 0.0
      }
    },
    {
      "doubleSided": true,
      "name": "ibm_3178_keyboard",
      "pbrMetallicRoughness": {
        "baseColorTexture": {
          "index": 1
        },
        "metallicFactor": 0.0,
        "roughnessFactor": 0.475963555442059
      }
    },
    {
      "doubleSided": true,
      "emissiveFactor": [
        0.1995056819218211,
        0.1995056819218211,
        0.1995056819218211
      ],
      "emissiveTexture": {
        "index": 3
      },
      "name": "display",
      "pbrMetallicRoughness": {
        "baseColorTexture": {
          "index": 2
        },
        "metallicFactor": 0.45772303595206393,
        "roughnessFactor": 0.2382683058813515
      }
    }
  ],
  "meshes": [
    {
      "name": "ibm_3178_0",
      "primitives": [
        {
          "attributes": {
            "NORMAL": 1,
            "POSITION": 0,
            "TEXCOORD_0": 2
          },
          "indices": 3,
          "material": 0,
          "mode": 4
        }
      ]
    },
    {
      "name": "ibm_3178_1",
      "primitives": [
        {
          "attributes": {
            "NORMAL": 5,
            "POSITION": 4,
            "TEXCOORD_0": 6
          },
          "indices": 7,
          "material": 1,
          "mode": 4
        }
      ]
    },
    {
      "name": "ibm_3178_2",
      "primitives": [
        {
          "attributes": {
            "NORMAL": 9,
            "POSITION": 8,
            "TEXCOORD_0": 10
          },
          "indices": 11,
          "material": 2,
          "mode": 4
        }
      ]
    }
  ],
  "nodes": [
    {
      "children": [
        1
      ],
      "matrix": [
        1.0,
        0.0,
        0.0,
        0.0,
        0.0,
        2.220446049250313e-16,
        -1.0,
        0.0,
        0.0,
        1.0,
        2.220446049250313e-16,
        0.0,
        0.0,
        0.0,
        0.0,
        1.0
      ],
      "name": "Sketchfab_model"
    },
    {
      "children": [
        2,
        6
      ],
      "name": "Root"
    },
    {
      "children": [
        3,
        4,
        5
      ],
      "name": "ibm_3178"
    },
    {
      "mesh": 0,
      "name": "ibm_3178_0"
    },
    {
      "mesh": 1,
      "name": "ibm_3178_1"
    },
    {
      "mesh": 2,
      "name": "ibm_3178_2"
    },
    {
      "children": [
        7
      ],
      "matrix": [
        -0.29086000000000006,
        0.9551700000000001,
        -0.05519000000000001,
        0.0,
        -0.7711,
        -0.19988000000000003,
        0.6045200000000001,
        0.0,
        0.5663900000000001,
        0.21839000000000003,
        0.7946700000000001,
        0.0,
        4.076250000000001,
        1.00545,
        5.903860000000001,
        1.0
      ],
      "name": "Lamp"
    },
    {
      "name": "Lamp"
    }
  ],
  "samplers": [
    {
      "magFilter": 9729,
      "minFilter": 9987,
      "wrapS": 10497,
      "wrapT": 10497
    }
  ],
  "scene": 0,
  "scenes": [
    {
      "name": "Sketchfab_Scene",
      "nodes": [
        0
      ]
    }
  ],
  "textures": [
    {
      "sampler": 0,
      "source": 0
    },
    {
      "sampler": 0,
      "source": 1
    },
    {
      "sampler": 0,
      "source": 2
    },
    {
      "sampler": 0,
      "source": 3
    }
  ]
}
